<svg xmlns="http://www.w3.org/2000/svg" width="38" height="38" viewBox="0 0 38 38">
    <g fill="none" fill-rule="evenodd">
        <circle cx="19" cy="19" r="19" fill="#FFF"/>
        <g>
            <path d="M0 0H24V24H0z" transform="translate(7 7)"/>
            <g fill-rule="nonzero">
                <path fill="#4285F4" d="M16.735 8.733c0-.606-.054-1.188-.155-1.747H8.538v3.303h4.596c-.198 1.067-.8 1.971-1.704 2.577v2.142h2.76c1.614-1.486 2.545-3.675 2.545-6.275z" transform="translate(7 7) translate(3.462 3.462)"/>
                <path fill="#34A853" d="M8.538 17.077c2.306 0 4.239-.765 5.651-2.069l-2.76-2.142c-.764.512-1.742.815-2.89.815-2.224 0-4.107-1.502-4.778-3.52H.908v2.212c1.405 2.79 4.293 4.704 7.63 4.704z" transform="translate(7 7) translate(3.462 3.462)"/>
                <path fill="#FBBC05" d="M3.76 10.16c-.17-.512-.267-1.059-.267-1.622 0-.562.097-1.11.268-1.622V4.704H.908C.33 5.857 0 7.16 0 8.538c0 1.378.33 2.682.908 3.835l2.853-2.212z" transform="translate(7 7) translate(3.462 3.462)"/>
                <path fill="#EA4335" d="M8.538 3.396c1.254 0 2.38.43 3.264 1.277l2.45-2.45C12.771.847 10.84 0 8.537 0 5.201 0 2.313 1.913.908 4.704l2.853 2.212c.671-2.018 2.554-3.52 4.777-3.52z" transform="translate(7 7) translate(3.462 3.462)"/>
            </g>
        </g>
    </g>
</svg>
