<svg xmlns="http://www.w3.org/2000/svg" width="38" height="38" viewBox="0 0 38 38">
    <g fill="none" fill-rule="evenodd">
        <circle cx="19" cy="19" r="19" fill="#00C801"/>
        <g>
            <path d="M0 0H24V24H0z" transform="translate(7 7)"/>
            <path fill="#FFF" fill-rule="nonzero" d="M19.614 15.468c-2.032 2.34-6.58 5.19-7.614 5.625-1.034.435-.882-.278-.84-.522.026-.146.139-.83.139-.83.033-.247.066-.631-.032-.876-.108-.27-.538-.41-.853-.478-4.658-.615-8.106-3.87-8.106-7.756 0-4.335 4.348-7.862 9.692-7.862s9.692 3.527 9.692 7.862c0 1.735-.673 3.297-2.078 4.837zM8.206 12.194H6.788V8.852c0-.28-.228-.508-.508-.508s-.508.228-.508.508v3.85c0 .28.228.508.508.508h1.926c.28 0 .508-.228.508-.508s-.227-.508-.508-.508zm1.992-3.342c0-.28-.228-.508-.508-.508s-.508.228-.508.508v3.85c0 .28.228.508.508.508s.508-.228.508-.508v-3.85zm4.636 0c0-.28-.228-.508-.508-.508s-.509.228-.509.508v2.382l-1.974-2.687c-.095-.127-.247-.203-.406-.203-.054 0-.109.009-.161.026-.208.07-.347.263-.347.482v3.85c0 .28.228.508.508.508s.508-.228.508-.508V10.32l1.974 2.687c.096.127.247.203.406.203.055 0 .109-.009.161-.026.208-.07.348-.263.348-.482v-3.85zm3.116 2.433c.28 0 .508-.228.508-.508s-.228-.508-.508-.508h-1.417V9.36h1.417c.28 0 .508-.228.508-.508s-.228-.508-.508-.508h-1.926c-.28 0-.508.228-.508.508V12.702c0 .28.228.508.508.508h1.926c.28 0 .508-.228.508-.508s-.228-.508-.508-.508h-1.417v-.91h1.417z" transform="translate(7 7)"/>
        </g>
    </g>
</svg>
